<svg width="24" height="24" viewBox="0 0 24 24" fill="none" xmlns="http://www.w3.org/2000/svg">
<path d="M11.0098 15.358H10.9588C10.7071 15.358 10.4657 15.258 10.2877 15.08C10.1097 14.9021 10.0098 14.6607 10.0098 14.409C10.0098 14.1438 9.90441 13.8894 9.71687 13.7019C9.52934 13.5144 9.27498 13.409 9.00977 13.409C8.74455 13.409 8.4902 13.5144 8.30266 13.7019C8.11512 13.8894 8.00977 14.1438 8.00977 14.409C8.00977 15.1911 8.32046 15.9412 8.87351 16.4943C9.42655 17.0473 10.1766 17.358 10.9588 17.358H11.0098V18.358C11.0098 18.6232 11.1151 18.8776 11.3027 19.0651C11.4902 19.2526 11.7445 19.358 12.0098 19.358C12.275 19.358 12.5293 19.2526 12.7169 19.0651C12.9044 18.8776 13.0098 18.6232 13.0098 18.358V17.358C13.8054 17.358 14.5685 17.0419 15.1311 16.4793C15.6937 15.9167 16.0098 15.1537 16.0098 14.358C16.0098 13.5624 15.6937 12.7993 15.1311 12.2367C14.5685 11.6741 13.8054 11.358 13.0098 11.358V9.358H13.0318C13.5718 9.358 14.0098 9.796 14.0098 10.336C14.0098 10.6012 14.1151 10.8556 14.3027 11.0431C14.4902 11.2306 14.7445 11.336 15.0098 11.336C15.275 11.336 15.5293 11.2306 15.7169 11.0431C15.9044 10.8556 16.0098 10.6012 16.0098 10.336C16.0098 9.54619 15.696 8.78872 15.1375 8.23024C14.579 7.67175 13.8216 7.358 13.0318 7.358H13.0098V6.358C13.0098 6.09278 12.9044 5.83843 12.7169 5.65089C12.5293 5.46336 12.275 5.358 12.0098 5.358C11.7445 5.358 11.4902 5.46336 11.3027 5.65089C11.1151 5.83843 11.0098 6.09278 11.0098 6.358V7.358C10.6158 7.358 10.2257 7.4356 9.86172 7.58636C9.49774 7.73713 9.16702 7.95811 8.88845 8.23668C8.60987 8.51526 8.38889 8.84597 8.23813 9.20995C8.08736 9.57393 8.00977 9.96404 8.00977 10.358C8.00977 10.752 8.08736 11.1421 8.23813 11.5061C8.38889 11.87 8.60987 12.2007 8.88845 12.4793C9.16702 12.7579 9.49774 12.9789 9.86172 13.1296C10.2257 13.2804 10.6158 13.358 11.0098 13.358V15.358ZM13.0098 15.358V13.358C13.275 13.358 13.5293 13.4634 13.7169 13.6509C13.9044 13.8384 14.0098 14.0928 14.0098 14.358C14.0098 14.6232 13.9044 14.8776 13.7169 15.0651C13.5293 15.2526 13.275 15.358 13.0098 15.358ZM11.0098 9.358V11.358C10.7445 11.358 10.4902 11.2526 10.3027 11.0651C10.1151 10.8776 10.0098 10.6232 10.0098 10.358C10.0098 10.0928 10.1151 9.83843 10.3027 9.6509C10.4902 9.46336 10.7445 9.358 11.0098 9.358ZM12.0098 22.358C6.48677 22.358 2.00977 17.881 2.00977 12.358C2.00977 6.835 6.48677 2.358 12.0098 2.358C17.5328 2.358 22.0098 6.835 22.0098 12.358C22.0098 17.881 17.5328 22.358 12.0098 22.358Z" fill="#21272A"/>
</svg>
