<svg width="100" height="37" viewBox="0 0 125 37" fill="none" xmlns="http://www.w3.org/2000/svg">
<path d="M31.7051 10.5352V26.4639L18.3809 34.3828L5.05762 26.4639V10.5352L18.3809 2.61621L31.7051 10.5352Z" stroke="white" stroke-width="3.63905"/>
<circle cx="18.3814" cy="18.5001" r="10.0074" fill="white"/>
<path d="M36.487 14.5108V12.2964H46.9203V14.5108H43.0311V25H40.3762V14.5108H36.487ZM47.5995 25V15.4723H50.1614V17.1347H50.2606C50.4343 16.5433 50.7258 16.0967 51.1352 15.7949C51.5446 15.4888 52.016 15.3358 52.5495 15.3358C52.6818 15.3358 52.8245 15.3441 52.9775 15.3606C53.1305 15.3772 53.2649 15.3999 53.3807 15.4289V17.7736C53.2566 17.7364 53.085 17.7033 52.8658 17.6743C52.6467 17.6454 52.4461 17.6309 52.2641 17.6309C51.8754 17.6309 51.5281 17.7157 51.2221 17.8852C50.9202 18.0506 50.6803 18.2822 50.5025 18.58C50.3288 18.8777 50.242 19.2209 50.242 19.6097V25H47.5995ZM58.6454 25.1861C57.6654 25.1861 56.8218 24.9876 56.1146 24.5906C55.4116 24.1895 54.8699 23.6229 54.4894 22.891C54.109 22.1549 53.9188 21.2844 53.9188 20.2796C53.9188 19.2995 54.109 18.4394 54.4894 17.6992C54.8699 16.9589 55.4054 16.3821 56.096 15.9685C56.7907 15.555 57.6054 15.3482 58.54 15.3482C59.1685 15.3482 59.7537 15.4496 60.2954 15.6522C60.8413 15.8507 61.3168 16.1505 61.7221 16.5516C62.1315 16.9527 62.4499 17.4572 62.6773 18.0651C62.9048 18.6689 63.0185 19.376 63.0185 20.1865V20.9123H54.9733V19.2747H60.5311C60.5311 18.8942 60.4484 18.5572 60.283 18.2636C60.1176 17.97 59.8881 17.7405 59.5945 17.5751C59.305 17.4055 58.968 17.3208 58.5834 17.3208C58.1823 17.3208 57.8266 17.4138 57.5165 17.5999C57.2105 17.7819 56.9706 18.0279 56.7969 18.3381C56.6233 18.6441 56.5343 18.9852 56.5302 19.3615V20.9185C56.5302 21.3899 56.6171 21.7972 56.7907 22.1404C56.9686 22.4837 57.2187 22.7483 57.5413 22.9344C57.8638 23.1205 58.2464 23.2136 58.6888 23.2136C58.9824 23.2136 59.2512 23.1722 59.4952 23.0895C59.7392 23.0068 59.948 22.8827 60.1217 22.7173C60.2954 22.5519 60.4277 22.3493 60.5187 22.1094L62.9627 22.2707C62.8386 22.8579 62.5843 23.3707 62.1997 23.809C61.8192 24.2432 61.3271 24.5823 60.7234 24.8263C60.1238 25.0662 59.4311 25.1861 58.6454 25.1861ZM67.3853 19.4918V25H64.7429V15.4723H67.2613V17.1533H67.3729C67.5838 16.5992 67.9374 16.1608 68.4336 15.8383C68.9299 15.5116 69.5316 15.3482 70.2387 15.3482C70.9003 15.3482 71.4772 15.493 71.9693 15.7824C72.4614 16.0719 72.8439 16.4854 73.1168 17.023C73.3898 17.5565 73.5262 18.1933 73.5262 18.9335V25H70.8838V19.405C70.8879 18.8219 70.7391 18.367 70.4372 18.0403C70.1353 17.7095 69.7197 17.5441 69.1904 17.5441C68.8348 17.5441 68.5205 17.6206 68.2475 17.7736C67.9788 17.9266 67.7679 18.1499 67.6148 18.4435C67.466 18.733 67.3895 19.0824 67.3853 19.4918ZM79.1197 25.1551C78.3961 25.1551 77.7406 24.969 77.1534 24.5968C76.5703 24.2205 76.1072 23.6684 75.764 22.9406C75.4249 22.2087 75.2553 21.3113 75.2553 20.2486C75.2553 19.1568 75.4311 18.2491 75.7826 17.5255C76.1341 16.7977 76.6013 16.2539 77.1844 15.8941C77.7716 15.5302 78.4147 15.3482 79.1135 15.3482C79.647 15.3482 80.0915 15.4392 80.4472 15.6212C80.8069 15.799 81.0964 16.0223 81.3156 16.2911C81.5389 16.5557 81.7084 16.8163 81.8242 17.0727H81.9049V12.2964H84.5411V25H81.9359V23.4741H81.8242C81.7002 23.7387 81.5244 24.0013 81.297 24.2619C81.0737 24.5182 80.7821 24.7312 80.4224 24.9008C80.0667 25.0703 79.6325 25.1551 79.1197 25.1551ZM79.9571 23.0523C80.3831 23.0523 80.7428 22.9365 81.0364 22.7049C81.3342 22.4692 81.5616 22.1404 81.7188 21.7186C81.88 21.2969 81.9607 20.8027 81.9607 20.2361C81.9607 19.6696 81.8821 19.1775 81.725 18.7599C81.5678 18.3422 81.3404 18.0196 81.0426 17.7922C80.7449 17.5648 80.3831 17.451 79.9571 17.451C79.5229 17.451 79.157 17.5689 78.8592 17.8046C78.5615 18.0403 78.3361 18.367 78.1831 18.7847C78.0301 19.2023 77.9536 19.6862 77.9536 20.2361C77.9536 20.7903 78.0301 21.2803 78.1831 21.7062C78.3402 22.128 78.5656 22.4589 78.8592 22.6987C79.157 22.9344 79.5229 23.0523 79.9571 23.0523Z" fill="white"/>
<path d="M87.1896 25V12.2964H89.8754V17.5379H95.3278V12.2964H98.0075V25H95.3278V19.7523H89.8754V25H87.1896ZM100.172 25V15.4723H102.815V25H100.172ZM101.5 14.2441C101.107 14.2441 100.77 14.1139 100.489 13.8533C100.212 13.5887 100.073 13.2723 100.073 12.9043C100.073 12.5404 100.212 12.2282 100.489 11.9676C100.77 11.703 101.107 11.5707 101.5 11.5707C101.893 11.5707 102.228 11.703 102.505 11.9676C102.786 12.2282 102.926 12.5404 102.926 12.9043C102.926 13.2723 102.786 13.5887 102.505 13.8533C102.228 14.1139 101.893 14.2441 101.5 14.2441ZM113.814 15.4723L110.483 25H107.506L104.175 15.4723H106.966L108.945 22.2893H109.044L111.017 15.4723H113.814ZM119.201 25.1861C118.221 25.1861 117.378 24.9876 116.671 24.5906C115.968 24.1895 115.426 23.6229 115.045 22.891C114.665 22.1549 114.475 21.2844 114.475 20.2796C114.475 19.2995 114.665 18.4394 115.045 17.6992C115.426 16.9589 115.961 16.3821 116.652 15.9685C117.347 15.555 118.161 15.3482 119.096 15.3482C119.724 15.3482 120.31 15.4496 120.851 15.6522C121.397 15.8507 121.873 16.1505 122.278 16.5516C122.687 16.9527 123.006 17.4572 123.233 18.0651C123.461 18.6689 123.574 19.376 123.574 20.1865V20.9123H115.529V19.2747H121.087C121.087 18.8942 121.004 18.5572 120.839 18.2636C120.674 17.97 120.444 17.7405 120.15 17.5751C119.861 17.4055 119.524 17.3208 119.139 17.3208C118.738 17.3208 118.383 17.4138 118.072 17.5999C117.766 17.7819 117.527 18.0279 117.353 18.3381C117.179 18.6441 117.09 18.9852 117.086 19.3615V20.9185C117.086 21.3899 117.173 21.7972 117.347 22.1404C117.524 22.4837 117.775 22.7483 118.097 22.9344C118.42 23.1205 118.802 23.2136 119.245 23.2136C119.538 23.2136 119.807 23.1722 120.051 23.0895C120.295 23.0068 120.504 22.8827 120.678 22.7173C120.851 22.5519 120.984 22.3493 121.075 22.1094L123.519 22.2707C123.395 22.8579 123.14 23.3707 122.756 23.809C122.375 24.2432 121.883 24.5823 121.279 24.8263C120.68 25.0662 119.987 25.1861 119.201 25.1861Z" fill="#FACB31"/>
</svg>
