<svg width="24" height="24" viewBox="0 0 24 24" fill="none" xmlns="http://www.w3.org/2000/svg">
<path fill-rule="evenodd" clip-rule="evenodd" d="M6.99987 4.51677C8.47991 3.52784 10.22 3 12 3C14.387 3 16.6761 3.94821 18.364 5.63604C20.0518 7.32387 21 9.61305 21 12C21 13.78 20.4722 15.5201 19.4832 17.0001C18.4943 18.4802 17.0887 19.6337 15.4442 20.3149C13.7996 20.9961 11.99 21.1743 10.2442 20.8271C8.49836 20.4798 6.89472 19.6226 5.63604 18.364C4.37737 17.1053 3.5202 15.5016 3.17294 13.7558C2.82567 12.01 3.0039 10.2004 3.68509 8.55585C4.36628 6.91131 5.51983 5.50571 6.99987 4.51677ZM12 4.5C10.5166 4.5 9.0666 4.93987 7.83323 5.76398C6.59986 6.58809 5.63856 7.75943 5.07091 9.12988C4.50325 10.5003 4.35473 12.0083 4.64411 13.4632C4.9335 14.918 5.64781 16.2544 6.6967 17.3033C7.7456 18.3522 9.08197 19.0665 10.5368 19.3559C11.9917 19.6453 13.4997 19.4968 14.8701 18.9291C16.2406 18.3614 17.4119 17.4001 18.236 16.1668C19.0601 14.9334 19.5 13.4834 19.5 12C19.5 10.0109 18.7098 8.10322 17.3033 6.6967C15.8968 5.29018 13.9891 4.5 12 4.5Z" fill="#21272A"/>
<path fill-rule="evenodd" clip-rule="evenodd" d="M12.9615 8.20737C12.8115 8.13593 12.4649 8.05667 12.0091 8.06242C11.5259 8.06977 11.0674 8.17397 10.7041 8.46666C10.3622 8.74174 10.195 9.02824 10.1121 9.23159C10.0701 9.33474 10.049 9.41849 10.0386 9.47056C10.0335 9.49652 10.0311 9.51424 10.0302 9.52212L10.0299 9.52516C10.0067 9.88164 9.70177 10.155 9.34355 10.1378C8.98153 10.1204 8.70214 9.81289 8.71952 9.45087L9.37501 9.48233C8.71952 9.45087 8.71952 9.45087 8.71952 9.45087L8.71958 9.44951L8.71966 9.44808L8.71983 9.44497C8.71995 9.44279 8.72009 9.4404 8.72026 9.4378C8.72059 9.4326 8.72102 9.42657 8.72158 9.41974C8.72269 9.40608 8.7243 9.38918 8.72663 9.36929C8.73129 9.32954 8.73886 9.27766 8.75113 9.21568C8.77564 9.09187 8.81921 8.92638 8.89675 8.73616C9.053 8.35283 9.34477 7.87583 9.88067 7.44456C10.5586 6.89854 11.3488 6.75968 11.9902 6.75006L11.9916 6.75004C12.5601 6.74276 13.1283 6.83315 13.5257 7.02228M12.9615 8.20737C13.3 8.36848 13.7178 8.63409 13.8895 9.09016C13.9396 9.22343 13.9688 9.37297 13.9688 9.54092M13.5257 7.02228C14.0258 7.26035 15.2813 7.96706 15.2813 9.54092C15.2813 11.1294 14.1885 11.862 13.3158 12.447C13.3057 12.4538 13.2957 12.4605 13.2857 12.4672C12.901 12.7252 12.6951 12.9677 12.5808 13.1809C12.4676 13.392 12.4219 13.6161 12.4219 13.875C12.4219 14.2374 12.1281 14.5312 11.7656 14.5312C11.4032 14.5312 11.1094 14.2374 11.1094 13.875C11.1094 13.4509 11.1869 13.0031 11.424 12.5608C11.66 12.1205 12.0314 11.7281 12.5547 11.3771C13.4932 10.7477 13.9688 10.3716 13.9688 9.54092" fill="#21272A"/>
<path d="M13.5257 7.02228L12.9615 8.20737C13.3 8.36848 13.7178 8.63409 13.8895 9.09016L13.5257 7.02228Z" fill="#21272A"/>
<path d="M11.7188 17.25C12.2365 17.25 12.6562 16.8303 12.6562 16.3125C12.6562 15.7947 12.2365 15.375 11.7188 15.375C11.201 15.375 10.7812 15.7947 10.7812 16.3125C10.7812 16.8303 11.201 17.25 11.7188 17.25Z" fill="#21272A"/>
</svg>
