<svg width="24" height="24" viewBox="0 0 24 24" fill="none" xmlns="http://www.w3.org/2000/svg">
<path d="M7.00977 2H17.0098C17.8054 2 18.5685 2.31607 19.1311 2.87868C19.6937 3.44129 20.0098 4.20435 20.0098 5V19C20.0098 19.7956 19.6937 20.5587 19.1311 21.1213C18.5685 21.6839 17.8054 22 17.0098 22H7.00977C6.21412 22 5.45105 21.6839 4.88845 21.1213C4.32584 20.5587 4.00977 19.7956 4.00977 19V5C4.00977 4.20435 4.32584 3.44129 4.88845 2.87868C5.45105 2.31607 6.21412 2 7.00977 2V2ZM8.00977 9C7.74455 9 7.4902 9.10536 7.30266 9.29289C7.11512 9.48043 7.00977 9.73478 7.00977 10C7.00977 10.2652 7.11512 10.5196 7.30266 10.7071C7.4902 10.8946 7.74455 11 8.00977 11H16.0098C16.275 11 16.5293 10.8946 16.7169 10.7071C16.9044 10.5196 17.0098 10.2652 17.0098 10C17.0098 9.73478 16.9044 9.48043 16.7169 9.29289C16.5293 9.10536 16.275 9 16.0098 9H8.00977ZM8.00977 17C7.74455 17 7.4902 17.1054 7.30266 17.2929C7.11512 17.4804 7.00977 17.7348 7.00977 18C7.00977 18.2652 7.11512 18.5196 7.30266 18.7071C7.4902 18.8946 7.74455 19 8.00977 19H13.0098C13.275 19 13.5293 18.8946 13.7169 18.7071C13.9044 18.5196 14.0098 18.2652 14.0098 18C14.0098 17.7348 13.9044 17.4804 13.7169 17.2929C13.5293 17.1054 13.275 17 13.0098 17H8.00977ZM8.00977 5C7.74455 5 7.4902 5.10536 7.30266 5.29289C7.11512 5.48043 7.00977 5.73478 7.00977 6C7.00977 6.26522 7.11512 6.51957 7.30266 6.70711C7.4902 6.89464 7.74455 7 8.00977 7H16.0098C16.275 7 16.5293 6.89464 16.7169 6.70711C16.9044 6.51957 17.0098 6.26522 17.0098 6C17.0098 5.73478 16.9044 5.48043 16.7169 5.29289C16.5293 5.10536 16.275 5 16.0098 5H8.00977ZM8.00977 13C7.74455 13 7.4902 13.1054 7.30266 13.2929C7.11512 13.4804 7.00977 13.7348 7.00977 14C7.00977 14.2652 7.11512 14.5196 7.30266 14.7071C7.4902 14.8946 7.74455 15 8.00977 15H16.0098C16.275 15 16.5293 14.8946 16.7169 14.7071C16.9044 14.5196 17.0098 14.2652 17.0098 14C17.0098 13.7348 16.9044 13.4804 16.7169 13.2929C16.5293 13.1054 16.275 13 16.0098 13H8.00977Z" fill="#21272A"/>
</svg>
