<svg width="16" height="15" viewBox="0 0 16 15" fill="none" xmlns="http://www.w3.org/2000/svg">
<path fill-rule="evenodd" clip-rule="evenodd" d="M1 0C0.447715 0 0 0.447715 0 1C0 1.55228 0.447715 2 1 2V10C1 11.1046 1.89543 12 3 12H5.58579L4.29289 13.2929C3.90237 13.6834 3.90237 14.3166 4.29289 14.7071C4.68342 15.0976 5.31658 15.0976 5.70711 14.7071L8 12.4142L10.2929 14.7071C10.6834 15.0976 11.3166 15.0976 11.7071 14.7071C12.0976 14.3166 12.0976 13.6834 11.7071 13.2929L10.4142 12H13C14.1046 12 15 11.1046 15 10V2C15.5523 2 16 1.55228 16 1C16 0.447715 15.5523 0 15 0H1ZM12 4C12 3.44772 11.5523 3 11 3C10.4477 3 10 3.44772 10 4V8C10 8.55228 10.4477 9 11 9C11.5523 9 12 8.55228 12 8V4ZM9 5C9 4.44772 8.55228 4 8 4C7.44772 4 7 4.44772 7 5V8C7 8.55228 7.44772 9 8 9C8.55228 9 9 8.55228 9 8V5ZM6 6C6 5.44772 5.55228 5 5 5C4.44772 5 4 5.44772 4 6V8C4 8.55228 4.44772 9 5 9C5.55228 9 6 8.55228 6 8V6Z" fill="#21272A"/>
</svg>
