<svg width="24" height="24" viewBox="0 0 24 24" fill="none" xmlns="http://www.w3.org/2000/svg">
<path d="M21 2.25L19.5 1.5L18 2.25L16.5 1.5L15 2.25L13.5 1.5L12 2.25L10.5 1.5L9 2.25L6.75 1.5V13.5V13.5023H17.25V19.875C17.25 21.3248 18.8002 22.5 20.25 22.5H20.8125C22.2623 22.5 23.25 21.3248 23.25 19.875V1.5L21 2.25ZM12.7734 11.25L12.75 9.75H20.2266L20.25 11.25H12.7734ZM9.77344 7.5L9.75 6H20.2266L20.25 7.5H9.77344Z" fill="#21272A"/>
<path d="M15.75 19.875V15H0.75V16.5C0.75 18.8695 1.02094 19.8572 1.42781 20.6077C2.11828 21.8813 3.36844 22.5 5.25 22.5H17.25C17.25 22.5 15.75 21.5625 15.75 19.875Z" fill="#21272A"/>
</svg>
