<svg width="24" height="24" viewBox="0 0 24 24" fill="none" xmlns="http://www.w3.org/2000/svg">
<path d="M21.75 21V12.5555C21.2461 12.7438 20.7146 12.848 20.1769 12.8639C20.1216 12.8639 20.0691 12.8662 20.0175 12.8662C19.0766 12.8688 18.1537 12.6091 17.3522 12.1162C16.5508 12.609 15.6281 12.8687 14.6873 12.8662C13.7505 12.8675 12.8323 12.6043 12.0384 12.1069C11.2335 12.6062 10.3044 12.8693 9.35719 12.8662C8.4139 12.8675 7.4897 12.6006 6.69234 12.0966C5.89499 12.6006 4.97078 12.8675 4.0275 12.8662C3.97641 12.8662 3.92484 12.8662 3.86953 12.8639H3.86672C3.31332 12.8475 2.76669 12.7375 2.25 12.5386V21H0.75V22.5H23.25V21H21.75ZM10.5 18H6V14.4375C6 14.3878 6.01975 14.3401 6.05492 14.3049C6.09008 14.2697 6.13777 14.25 6.1875 14.25H10.3125C10.3622 14.25 10.4099 14.2697 10.4451 14.3049C10.4802 14.3401 10.5 14.3878 10.5 14.4375V18ZM18 21H14.25V14.4375C14.25 14.3878 14.2698 14.3401 14.3049 14.3049C14.3401 14.2697 14.3878 14.25 14.4375 14.25H17.8125C17.8622 14.25 17.9099 14.2697 17.9451 14.3049C17.9802 14.3401 18 14.3878 18 14.4375V21Z" fill="#21272A"/>
<path d="M23.0891 7.98187L20.901 3C20.2499 1.5 20.2499 1.5 18.7499 1.5H5.24988C3.74988 1.5 3.74988 1.5 3.09645 3L0.908321 7.98187C0.486446 8.89172 1.04379 9.82594 1.04426 9.82641L1.06348 9.85734C1.08316 9.88828 1.11645 9.93937 1.13941 9.96844C1.1441 9.97453 1.14832 9.98109 1.15254 9.98719L1.39816 10.2867L1.64707 10.5277L1.66676 10.5445C1.80515 10.6626 1.95316 10.7689 2.10926 10.8623V10.8647C2.6194 11.1737 3.20061 11.346 3.79676 11.3648C3.8352 11.3648 3.87363 11.3648 3.91254 11.3648C4.81454 11.3665 5.68368 11.0263 6.34488 10.4128C6.44036 10.3243 6.53067 10.2304 6.61535 10.1316C6.70033 10.2303 6.79078 10.3242 6.88629 10.4128C7.5475 11.0263 8.41663 11.3665 9.31863 11.3648C10.4099 11.3648 11.3844 10.8961 12.02 10.1667C12.021 10.1658 12.0223 10.1653 12.0236 10.1653C12.0249 10.1653 12.0261 10.1658 12.0271 10.1667L12.2924 10.4133C12.9537 11.0269 13.823 11.3671 14.7252 11.3653C15.8169 11.3653 16.7929 10.8966 17.428 10.1648C18.0636 10.8966 19.0391 11.3653 20.1313 11.3653H20.248C20.8292 11.3436 21.3947 11.1707 21.8886 10.8637C21.9332 10.837 21.9758 10.8089 22.0189 10.7808C22.3521 10.556 22.6421 10.2731 22.8749 9.94547L22.9686 9.80484C23.0108 9.70922 23.4941 8.85328 23.0891 7.98187Z" fill="#21272A"/>
</svg>
