<svg width="24" height="24" viewBox="0 0 24 24" fill="none" xmlns="http://www.w3.org/2000/svg">
<path d="M19.5 3.00005H18.75V2.27115C18.75 1.86755 18.4397 1.52115 18.0361 1.50099C17.9347 1.49611 17.8333 1.51186 17.7382 1.5473C17.6431 1.58274 17.5561 1.63712 17.4826 1.70716C17.4091 1.77719 17.3506 1.86142 17.3106 1.95474C17.2706 2.04806 17.25 2.14853 17.25 2.25005V3.00005H6.75V2.27115C6.75 1.86755 6.43969 1.52115 6.03609 1.50099C5.93469 1.49611 5.83334 1.51186 5.7382 1.5473C5.64307 1.58274 5.55611 1.63712 5.48261 1.70716C5.40911 1.77719 5.3506 1.86142 5.31062 1.95474C5.27063 2.04806 5.25001 2.14853 5.25 2.25005V3.00005H4.5C3.70435 3.00005 2.94129 3.31612 2.37868 3.87873C1.81607 4.44134 1.5 5.2044 1.5 6.00005V6.56255C1.5 6.61228 1.51975 6.65997 1.55492 6.69514C1.59008 6.7303 1.63777 6.75005 1.6875 6.75005H22.3125C22.3622 6.75005 22.4099 6.7303 22.4451 6.69514C22.4802 6.65997 22.5 6.61228 22.5 6.56255V6.00005C22.5 5.2044 22.1839 4.44134 21.6213 3.87873C21.0587 3.31612 20.2956 3.00005 19.5 3.00005Z" fill="#21272A"/>
<path d="M22.3594 8.25H1.64062C1.60333 8.25 1.56756 8.26482 1.54119 8.29119C1.51482 8.31756 1.5 8.35333 1.5 8.39062V19.5C1.5 20.2956 1.81607 21.0587 2.37868 21.6213C2.94129 22.1839 3.70435 22.5 4.5 22.5H19.5C20.2956 22.5 21.0587 22.1839 21.6213 21.6213C22.1839 21.0587 22.5 20.2956 22.5 19.5V8.39062C22.5 8.35333 22.4852 8.31756 22.4588 8.29119C22.4324 8.26482 22.3967 8.25 22.3594 8.25ZM10.5 14.4108C10.5 14.766 10.3589 15.1066 10.1078 15.3578C9.8566 15.6089 9.51596 15.75 9.16078 15.75H5.83922C5.48404 15.75 5.1434 15.6089 4.89225 15.3578C4.6411 15.1066 4.5 14.766 4.5 14.4108V11.0892C4.5 10.734 4.6411 10.3934 4.89225 10.1422C5.1434 9.8911 5.48404 9.75 5.83922 9.75H9.16078C9.51596 9.75 9.8566 9.8911 10.1078 10.1422C10.3589 10.3934 10.5 10.734 10.5 11.0892V14.4108Z" fill="#21272A"/>
</svg>
