<svg width="24" height="24" viewBox="0 0 24 24" fill="none" xmlns="http://www.w3.org/2000/svg">
<path fill-rule="evenodd" clip-rule="evenodd" d="M4.5 4.5C3.67157 4.5 3 5.17157 3 6V19.5C3 20.3284 3.67157 21 4.5 21H19.5C20.3284 21 21 20.3284 21 19.5V6C21 5.17157 20.3284 4.5 19.5 4.5H4.5ZM1.5 6C1.5 4.34315 2.84315 3 4.5 3H19.5C21.1569 3 22.5 4.34315 22.5 6V19.5C22.5 21.1569 21.1569 22.5 19.5 22.5H4.5C2.84315 22.5 1.5 21.1569 1.5 19.5V6Z" fill="#21272A"/>
<path fill-rule="evenodd" clip-rule="evenodd" d="M6 1.5C6.41421 1.5 6.75 1.83579 6.75 2.25V3.75C6.75 4.16421 6.41421 4.5 6 4.5C5.58579 4.5 5.25 4.16421 5.25 3.75V2.25C5.25 1.83579 5.58579 1.5 6 1.5Z" fill="#21272A"/>
<path fill-rule="evenodd" clip-rule="evenodd" d="M18 1.5C18.4142 1.5 18.75 1.83579 18.75 2.25V3.75C18.75 4.16421 18.4142 4.5 18 4.5C17.5858 4.5 17.25 4.16421 17.25 3.75V2.25C17.25 1.83579 17.5858 1.5 18 1.5Z" fill="#21272A"/>
<path fill-rule="evenodd" clip-rule="evenodd" d="M6 11.25V14.25H9V11.25H6ZM4.5 11.1094C4.5 10.3586 5.10861 9.75 5.85938 9.75H9.14062C9.89139 9.75 10.5 10.3586 10.5 11.1094V14.3906C10.5 15.1414 9.89139 15.75 9.14062 15.75H5.85938C5.10861 15.75 4.5 15.1414 4.5 14.3906V11.1094Z" fill="#21272A"/>
<path fill-rule="evenodd" clip-rule="evenodd" d="M1.5 7.5C1.5 7.08579 1.83579 6.75 2.25 6.75H21.75C22.1642 6.75 22.5 7.08579 22.5 7.5C22.5 7.91421 22.1642 8.25 21.75 8.25H2.25C1.83579 8.25 1.5 7.91421 1.5 7.5Z" fill="#21272A"/>
</svg>
